<svg xmlns="http://www.w3.org/2000/svg" width="880" height="215"
     viewBox="0 0 880 215" role="img" aria-label="VentOS">
  <rect width="880" height="215" rx="28" fill="#F7FAF5"/>
  <rect x="1" y="1" width="878" height="213" rx="27" fill="none"
        stroke="#737D76" stroke-width="1" opacity=".35"/>
  <g transform="translate(56,50) scale(1.16)">
    <circle cx="23" cy="25" r="17" fill="#2B2B2B"/>
    <circle cx="77" cy="25" r="17" fill="#2B2B2B"/>
    <circle cx="23" cy="25" r="8.5" fill="#F26B8A"/>
    <circle cx="77" cy="25" r="8.5" fill="#F26B8A"/>
    <ellipse cx="50" cy="56" rx="43" ry="38" fill="#FFFFFF"/>
    <ellipse cx="31" cy="53" rx="13" ry="15.5" fill="#2B2B2B" transform="rotate(-14 31 53)"/>
    <ellipse cx="69" cy="53" rx="13" ry="15.5" fill="#2B2B2B" transform="rotate(14 69 53)"/>
    <circle cx="32.5" cy="52" r="5.6" fill="#FFFFFF"/>
    <circle cx="67.5" cy="52" r="5.6" fill="#FFFFFF"/>
    <circle cx="33.5" cy="53.5" r="3.1" fill="#2B2B2B"/>
    <circle cx="66.5" cy="53.5" r="3.1" fill="#2B2B2B"/>
    <ellipse cx="13" cy="69" rx="7.5" ry="5" fill="#F26B8A" opacity=".75"/>
    <ellipse cx="87" cy="69" rx="7.5" ry="5" fill="#F26B8A" opacity=".75"/>
    <ellipse cx="50" cy="68" rx="4.6" ry="3.4" fill="#2B2B2B"/>
    <path d="M50 71.5 v3.5" stroke="#2B2B2B" stroke-width="2.2" stroke-linecap="round" fill="none"/>
    <path d="M43.5 75 q6.5 6 13 0" stroke="#2B2B2B" stroke-width="2.2"
          stroke-linecap="round" fill="none"/>
  </g>
  <text x="206" y="98" font-family="ui-sans-serif,-apple-system,BlinkMacSystemFont,'Segoe UI',Roboto,'Helvetica Neue',Arial,sans-serif" font-size="52" font-weight="700"
        letter-spacing="-1" fill="#2B352F">PandaVent<tspan
        fill="#316A4D" font-weight="600"> OS</tspan></text>
  <text x="208" y="132" font-family="ui-sans-serif,-apple-system,BlinkMacSystemFont,'Segoe UI',Roboto,'Helvetica Neue',Arial,sans-serif" font-size="17" font-weight="400"
        letter-spacing=".2" fill="#58615A">Open firmware for the BIQU Panda Vent</text>
  <text x="208" y="160" font-family="ui-sans-serif,-apple-system,BlinkMacSystemFont,'Segoe UI',Roboto,'Helvetica Neue',Arial,sans-serif" font-size="14" font-weight="500"
        letter-spacing="1.4" fill="#316A4D">18 EFFECTS  &#183;  MATERIAL AWARE VENTING  &#183;  24 LANGUAGES</text>
  <g fill="none" stroke-linecap="round">
    <circle cx="764" cy="90" r="44" stroke="#737D76" stroke-width="7" opacity=".22"/>
    <path d="M 732.89 121.11 A 44 44 0 1 1 795.11 121.11" stroke="#316A4D" stroke-width="7"/>
    <circle cx="764" cy="90" r="27" stroke="#737D76" stroke-width="2" opacity=".28"/>
  </g>
  <g>
    <circle cx="702" cy="168" r="6.5" fill="#8FD3A6"/>
    <circle cx="723" cy="168" r="6.5" fill="#5FBF88"/>
    <circle cx="744" cy="168" r="6.5" fill="#3FA36C"/>
    <circle cx="765" cy="168" r="6.5" fill="#2E7D32"/>
    <circle cx="786" cy="168" r="6.5" fill="#737D76" opacity=".22"/>
    <circle cx="807" cy="168" r="6.5" fill="#737D76" opacity=".22"/>
    <circle cx="828" cy="168" r="6.5" fill="#737D76" opacity=".22"/>
  </g>
</svg>
